<?xml version="1.0" encoding="UTF-8"?>
<svg id="Layer_1" xmlns="http://www.w3.org/2000/svg" version="1.1" viewBox="0 0 822.36 313.4">
  <!-- Generator: Adobe Illustrator 29.3.1, SVG Export Plug-In . SVG Version: 2.1.0 Build 151)  -->
  <path d="M285.65,75.53c-.7-2.84-13.21-20.16-14.48-20.15-11.26,23.69-28.8,45.06-52.38,57.23l-25.95-16.57-.51-1.13c5.04-14.85-13.87-26.3-24.28-14.45-10.31,11.73,2.9,29.15,17.02,22.47,2.02-.96,3.22-2.77,5.11-3.7,7.24,5.39,15.63,9.45,22.85,14.82.69.51,1.46.85.57,1.59-1.8,1.49-8.76,4.11-11.31,5.06-27.11,10.15-56.47,10.21-83.75.55-2.38-.85-18.4-7.47-18.41-8.86,6.85-4.72,9.21-13.12,4.59-20.42-.85-1.34-2.96-1.98-2.33-3.99l21.77-45.13c5.53,1.62,11.82.15,15.53-4.36,1.65-2.01,2.1-5.99,4.34-6.06l58.59,9.94c-1.69,15.4,18.89,23.22,26.92,9.59,9.66-16.4-15.63-31.28-24.77-14.14l-59.48-9.31-2.33-.94c-1.3-7.09-6.19-12.27-13.62-12.56-11.54-.45-19.27,12.21-12.75,22.02,1.03,1.55,3.89,3.19,3.65,4.87l-21.75,44.35c-5.99-1.21-11.42-.89-16.04,3.57l-4.42,7.03c-13.93-12.83-24.5-28.83-31.65-46.35-3.99,4.01-8.14,7.87-11.72,12.28-1.53,1.89-7.58,11.63-8.19,12.03-.7.45-2.59-.54-2.73-1.17s4.71-7.42,5.55-8.59c60.66-85.22,187.87-86.73,251.64-4.13,1.58,2.05,7.79,10.11,8.3,11.92.45,1.58-2.27,2.83-3.58,2.72Z"/>
  <path d="M165.04,313.39v-3.82c10.52-.19,20.9-1.98,31.1-4.36.12-.63-.07-1.06-.29-1.62-1.31-3.26-6.16-9.24-8.18-13.1-14.19-27.08-17.59-59.75-9.05-89.16l20.02-2.86c3.75,7.82,10.49,12.41,19.32,9.35,13.93-4.82,11.27-26-2.99-27.54-9.32-1.01-15.51,5-16.62,13.94l-18.03,2.43c8.02-26.13,26.06-49.56,49.36-63.83,1.66,10.41,10.87,16.5,21,12.57l19.11,37.92c-4.05,4.58-6.29,8.22-5.4,14.66.34,2.43,2.77,4.67,1.63,6.61l-39.32,39.83c-.93.59-5.55-1.69-7.42-1.88-14.44-1.43-21.83,17.34-9.67,26.03,13.41,9.58,29.46-7.71,19.49-20.61l40.18-40.69c1.28-.58,5.92,2.3,8.53,2.43,18.05.91,20.4-26.63,2.6-28.82-2.14-.26-6.03.9-7.05-.04l-19.12-38.18c6.54-5.98,5.94-15.99-.78-21.56,15.48-6.33,32.98-8.58,49.64-7.37-1.68-10.22-6.49-19.93-11.91-28.64l3.72-2.99c20.9,39.4,24.4,85.82,9.29,127.93-21.14,58.92-76.42,100-139.14,103.36Z"/>
  <path d="M9,114.83c20.3-3.38,41.63-.66,60.84,6.54,3.4,1.27,12.08,4.66,14.66,6.61.48.37.92.58.89,1.3l-6.07,30.22c-7.45-.05-13.63,4.47-14.73,12l-29.93.03c-.36-13.57-19.67-17.47-25.41-5.45-7.41,15.52,13.76,27.12,22.9,14.17,1.22-1.73,1.47-4.87,3.82-4.91h28.32c9.73,26.38,42.34.99,19.09-14.94l6.11-29.23c26.25,15.42,45.63,41.63,53.73,70.92l-34.61,4.93c-1.41-3.07-2.51-5.24-5.37-7.23-13.93-9.69-29.55,9.91-16.19,21.64,1.3,1.14,3.49.78,2.58,3.71l-12.93,44.8c-6.66.96-13,4.52-13.7,11.8-.9.15-1.46-.43-2.13-.87-22.94-14.76-45.27-50.12-53.53-75.77-12.36-38.38-9.55-88.75,11.58-123.73,1.27-2.1,1.55-3.47,3.7-1.17-6.44,10.63-11,22.45-13.63,34.6Z"/>
  <path d="M124.12,306.29c10.95,2.39,21.95,3.79,33.2,3.35l.63,3.74c-25.6.37-51.94-5.78-74.19-18.27,9.01-6.92,7.07-19.68-3.26-23.99l13.59-46.41c7.98-.31,14.95-5.37,14.76-13.88l35.46-4.91c8.42,34.6.65,71.76-20.18,100.37Z"/>
  <polygon points="647.35 162.83 669.18 197.75 669.18 162.83 693.73 162.83 693.73 239.75 668.09 239.75 646.81 204.84 646.81 238.93 645.99 239.75 621.71 239.75 621.71 162.83 647.35 162.83"/>
  <path d="M475.49,143.2v-76.1c.48-.78,1.09-.75,1.88-.85,9.39-1.1,23.13.18,32.77.57,10.56.42,31.64-.26,33.95,14.06,1.44,8.9,1.91,42.17.01,50.46-1.16,5.04-4.17,7.86-8.86,9.69-1.86.72-6.97,2.17-8.74,2.17h-51.01ZM505.5,130.1c7.58-.17,8.85-1.81,9.3-8.97.76-11.93-.42-24.86-.27-36.88-.55-4.79-5.22-4.48-9.03-4.33v50.19Z"/>
  <path d="M340.73,66.28c12.34.45,25.09-.59,37.4-.02,13.59.63,27.49,1.6,28.65,18.27.35,5.09.48,12.39-4.21,15.48l-10.54,3.36c5.3.74,11.72,2.26,13.75,7.8.19.52.98,3.15.98,3.39v28.64h-27.28v-29.18c0-.15-.72-2.73-.85-2.97-1.28-2.5-8.43-3.39-8.43-1.94v34.09h-29.46v-76.91ZM370.19,96.28c6.57.26,8.92-.53,9.3-7.34.42-7.63-1.36-9.97-9.3-9.57v16.91Z"/>
  <path d="M439.37,163c16.42-1.25,40.6-1.36,42.14,19.73.59,8.1,1.06,36.65-.94,43.29-4.9,16.28-38.08,15.21-51.03,11.94-10.94-2.76-15.57-7.87-16.28-19.18-.65-10.39-.81-26.85,0-37.14,1.14-14.42,13.71-17.7,26.1-18.64ZM450.81,174.96c-.91-.91-4.65-.92-5.86-.39-1.63.72-2.04,3.81-2.18,5.45-1.24,13.72.91,29.17-.01,43.09,1.15,7.92,8.48,6.78,9.27-1.1,1.05-10.5.92-31.94.03-42.56-.09-1.06-.58-3.82-1.24-4.49Z"/>
  <path d="M515.86,162.83c3.05,14.2,5.74,28.52,6.27,43.1l6.27-43.1h28.37l-13.34,76.39-39.87.56-16.08-76.95h28.37Z"/>
  <path d="M795.21,184.11c-.34-3.01,1.37-8.77-2.57-9.7-7.6-1.8-7.75,8.89-4.25,12.43,4.07,4.11,17.47,7.96,23.48,11.98,10.11,6.78,11.45,15.73,10.02,27.5-1.82,14.94-26.84,14.19-37.88,13.45-9.47-.63-22.07-5.11-22.07-16.66v-9h25.1v11.73c0,1.46,2.81,2.45,4.12,2.48,7.81.17,7.22-12.41,1.52-16.3-8.49-5.8-23.52-8.94-28.9-18.57-4.51-8.07-4.25-22.21,4.54-27.24,8.71-4.99,38.64-5.17,46.72,1.08,5.39,4.17,4.42,9.39,5.31,15.44.02.45-.55,1.38-.85,1.38h-24.28Z"/>
  <polygon points="753.2 162.83 753.2 178.11 733.56 178.11 733.56 192.84 752.11 192.84 752.11 207.56 733.56 207.56 733.56 223.93 754.84 223.93 754.84 239.75 703.55 239.75 703.55 162.83 753.2 162.83"/>
  <polygon points="612.43 162.83 612.43 178.11 592.79 178.11 592.79 192.84 611.34 192.84 611.34 206.75 610.52 207.56 592.79 207.56 592.79 223.93 614.07 223.93 614.07 239.75 562.78 239.75 562.78 162.83 612.43 162.83"/>
  <polygon points="466.21 66.28 466.21 81.56 446.57 81.56 446.57 96.28 465.12 96.28 465.12 110.19 464.3 111.01 446.57 111.01 446.57 127.92 467.85 127.92 467.85 143.2 416.56 143.2 416.56 66.28 466.21 66.28"/>
  <path d="M406.2,162.83v58.09c0,4.6-2.43,10.18-6.05,13.04-9.92,7.86-44.24,8.42-53.68-.24-2.46-2.25-5.74-8.46-5.74-11.71v-8.46h24.28l.82.82v8.18c0,.5,1.33,3.09,1.96,3.49,1.54,1,4.75.91,6.19-.25.51-.41,2.21-3.33,2.21-3.79v-59.19h30.01Z"/>
  <path d="M580.79,100.1v43.09h-9.28v-2.18c-2.24.8-3.67,2.22-6.27,2.22-4.11,0-5.93-1.84-6.3-5.75-.55-5.91-.57-18.15,0-24.05.68-7.14,7.77-6.02,12.58-3.52v-9.82h9.28ZM570.9,113.82h-2.04c-.35.74-.54,1.55-.62,2.37-.45,4.81-.36,13.14-.02,18.03.05.66.19,2.82.91,3l1.81-.05c.69-2.86,1.1-22.64-.04-23.35Z"/>
  <path d="M605.89,126.29h-12v10.09c4.38,3.32,3.12-3.95,3.27-6.82h8.73c.62,6.37-1.71,13.18-8.98,13.66-5.22.34-10.49-1.09-12.05-6.55-1.33-4.64-1.44-20.71.92-24.76,3.19-5.48,16.03-5.39,18.74,1.28.36.9,1.37,4.47,1.37,5.18v7.91ZM596.61,120.29c1.03-8.9-3.77-8.88-2.73,0h2.73Z"/>
  <path d="M657.17,259.11c-.03-.23-.75-.75-.54-1.36l4.61-.04c.58,3.39,1.42.73,3.25,0,2.51-1,6.49-.72,7.44,2.2h.78c2.81-4.05,9.31-3.73,10.94,1.09.13.38.8,3.38.8,3.56v10.36l-.9.73c-.69.15-1.39.12-2.1.12-1.12,0-2.31.18-3-.85v-11.46c0-.13-.52-1.05-.7-1.21-7.25-3.05-2.78,10.57-4.45,12.98l-5.22.51v-10.64c0-2.73-3.09-4.81-4.95-2.22-1.49,2.07.25,9.51-.74,12.35l-5.22.51c-.45-5.28.6-11.47,0-16.64Z"/>
  <path d="M557.87,249.57v26.18h-4.91s-.28-2.19-.28-2.19c-7.56,5.83-14.52-.1-13.31-8.95.85-6.2,7.38-9.81,12.5-5.77v-9.27h6ZM547.91,261.67c-4.27.89-3.93,10.5,1.48,9.73,3.7-.52,4.06-10.89-1.48-9.73Z"/>
  <path d="M693.18,249.57v9.82c8.52-6.39,15.46,2.09,12.41,11.04-1.91,5.6-8.73,7.36-12.95,3.14l-.51,1.95-4.41.23v-26.18h5.46ZM694.41,270.7c4.77,4.47,8.62-6.6,4.1-8.72-5.15-2.42-6.8,6.18-4.1,8.72Z"/>
  <path d="M445.46,251.23l-1.07,4.89c-2.79-.87-8.09-2.73-8.69,1.37.28,3.56,10.29,2.81,10.91,9.81.82,9.2-10.6,9.78-16.93,7.34l1.08-4.88c2.93,1.19,6.24,2.44,9.27.82,2.71-6-6.56-4.6-9.2-9.35-4.96-8.9,7.99-12.86,14.63-9.99Z"/>
  <path d="M605.34,251.21l-1.14,4.32c-17.21-4.86-16.57,20.62.04,14.76l.49,4.86c-10.51,2.75-20.35-1.72-18.98-13.8,1.12-9.84,11.28-12.46,19.58-10.15Z"/>
  <path d="M466.4,259.58c2.34-2.19,6.14-2.77,9.23-2.24,10.33,1.76,9.7,20.83-5.2,18.28-7.16-1.22-8.75-11.62-4.03-16.04ZM472.61,261.11c-4.31.65-4.15,11.35.95,10.83,4.34-.44,4.24-11.61-.95-10.83Z"/>
  <path d="M490.77,257.75v11.18c0,2.22,4.06,3.44,5.46,1.09v-12.27h6v18h-4.91s-.28-2.19-.28-2.19c-2.64,2.3-7.26,3.52-10.04.78-.35-.34-1.68-2.5-1.68-2.68v-13.91h5.46Z"/>
  <path d="M612.83,257.33c8.66-1.78,13.79,5.21,11.09,13.27-2.17,6.46-12.54,7.05-16.4,1.61-3.64-5.12-1.08-13.57,5.31-14.88ZM614.96,261.16c-4.55.48-4.05,11,.42,10.77,4.82-.24,4.7-11.32-.42-10.77Z"/>
  <path d="M642.84,257.34c14.9-2.58,15.88,19.98.41,18.41-10.21-1.04-10.18-16.72-.41-18.41ZM644.48,261.11c-4.62,1.2-4.07,11.34.95,10.84,4.14-.41,4.52-11.22-.95-10.84Z"/>
  <path d="M728.08,274.12c-13.98,7.17-15.02-12.46-.52-10.38.39-5.04-7.48-1.27-8.21-1.85-.34-.27-.95-2.42-.89-2.81.31-1.98,13.37-4.26,14.52,3.34.6,3.92-.71,8.55.52,12.47-.32,1.37-5.75,1.53-5.42-.77ZM727.55,267.02c-6.67-.65-6.3,7.4-.26,3.83l.26-3.83Z"/>
  <path d="M577.52,268.11h-11.46c.14,4.79,6.55,3.36,9.82,2.73l.51,3.48c-4.22,2.92-13.5,2.06-15.36-3.62-5.02-15.35,18.25-19.62,16.49-2.58ZM572.06,264.29c.22-4.31-4.71-4.46-6.01-.82-.11,1.13.06.72.82.83,1.59.22,3.55-.16,5.19,0Z"/>
  <path d="M530,257.79l-.51,4.32c-.44.39-5.62-2.9-6.02.27,0,2.55,7.62,1.96,7.68,7.62.06,5.33-5.99,6.21-10.11,5.74-3.81-.43-4.39-1.58-2.15-4.88,2.38.9,4.28,1.55,6.78.51-.06-3.73-5.33-2.52-7.02-5.79-3.6-6.95,6.03-10.1,11.34-7.8Z"/>
  <path d="M506.59,261.57h-2.19s0-3.51,0-3.51l2.2-.31.02-3.8,5.15-1.12.28,4.92h3.82s0,3.82,0,3.82h-3.82s0,7.91,0,7.91c0,1.49,2.45,2.33,3.82,1.91v4.37c-2.92.56-9.28-.15-9.28-4.09v-10.09Z"/>
  <path d="M633.17,249.57v25.37l-.9.73c-.69.15-1.39.12-2.1.12-1.12,0-2.31.18-3-.85v-25.37h6Z"/>
  <path d="M462.92,257.78l-1.05,4.11c-10.95-3-10.15,12.93.51,8.96l.54,4.34c-19.72,5.49-19.1-22.37,0-17.4Z"/>
  <path d="M462.39,149.2c.24.95-.39,1.09-.81,1.64-.75.98-8.12,8.72-8.73,8.72h-11.18l10.09-10.36h10.64Z"/>
  <rect x="709.01" y="257.75" width="5.46" height="18"/>
  <path d="M423.11,266.48h-15.82l.24-3.31,14.69-.43c1.36.45.83,2.57.89,3.74Z"/>
  <path d="M757.56,266.48h-15c-1.12,0-1.12-3.82,0-3.82h14.19c1.23.88.78,2.49.82,3.82Z"/>
  <path d="M709.14,254.35c-.86-1.26-.87-2.83,0-4.1,7.9-3.62,7.86,7.74,0,4.1Z"/>
</svg>