<?xml version="1.0" encoding="UTF-8"?>
<svg id="Layer_1" xmlns="http://www.w3.org/2000/svg" version="1.1" viewBox="0 0 583.78 860.95">
  <!-- Generator: Adobe Illustrator 29.3.1, SVG Export Plug-In . SVG Version: 2.1.0 Build 151)  -->
  <path d="M504.33,103.1c-19.09,45.3-53.44,83.33-96.21,107.35l-49.67-31.64c-1.15-1.52.73-4.56.89-7.05,2.71-41.7-56.5-38.87-52.54-.04,2.34,22.95,33.01,30.39,47.41,13.08l45.06,30.07c-66.46,35.34-147.81,31.43-213.19-4.33-.18-1.02-.21-1,.49-1.62,1.74-1.56,4-2.22,6.18-4.63,8.26-9.17,8.95-22.64,2.29-32.89-.78-1.21-5.02-5.14-4.96-5.79l40.77-83.98c1.23-2.32,3.61-.45,5.76-.44,15.51.06,25.05-6,29.44-21.22l112.04,18.87c-3.64,24.76,24.54,41.19,43.94,24.68,9.39-8,11.48-22.41,5.61-33.08-10.22-18.57-36.88-17.76-46.74.61l-113.54-18.27c-1.34-.52-2.47-7.64-3.53-9.8-6.96-14.26-24.95-18.75-38.31-10.6-13.04,7.95-16.12,26.35-6.83,38.52,1.57,2.05,6.04,4.97,5.7,7.33l-40.65,83.39c-3.83-.29-7.38-2.14-11.33-2.04-12.54.3-23.21,9.99-25.91,21.98-25.97-24.09-46.76-53.75-59.2-87.06-15.27,12.05-27.44,28.6-37.61,45.15l-5.46-2.4C86.66,69.32,157.22,20.58,236.08,5.29c106.8-20.71,217.34,20.48,284.67,105.28,5.39,6.79,14.13,17.78,17.92,25.25.42.83,1.26,1.34.2,2.2l-6.36,3.18c-1.07-3.73-26.29-39.52-28.19-38.1Z"/>
  <path d="M307.57,583.88v-7.07c19.58-.86,39.12-3.42,58.01-8.63-4.04-8.18-9.81-15.64-14.25-23.78-27.58-50.65-35.47-113.99-18.1-169.16l37.35-5.54c7.07,22.69,39.6,26.5,50.01,4.52,12.04-25.42-18.41-50.21-40.49-32.67-6.7,5.32-9.52,12.47-10.55,20.82l-33.75,5.04c-1.08-1.49,7.11-21.04,8.48-24.06,15.58-34.49,42.53-67.85,73.57-89.52,1.52-1.06,10.3-7.4,11.22-6.42-.51,19.08,20.65,31.24,37.57,23.56l36.18,71.62c-12.23,8.5-13.95,25.21-5.89,37.36l-75.72,75.71c-1.89.85-7.98-3.05-11.42-3.47-26.9-3.25-41.8,30.08-21.06,46.95,21.13,17.18,51.07-4.25,42.06-29.54-1.05-2.94-5.01-6.8-3.33-9.3l74.54-74.52c1.24-.62,8.04,3.72,10.75,4.17,38.93,6.53,46.76-53.81,1.39-52.36-1.64.05-3.43,1.55-4.71.02l-36.14-69.82.04-1.55c8.78-7.65,10.62-20.69,6.06-31.14l-7.2-10.44c29.71-9.51,61.16-15.55,92.49-12.56-3.85-19.21-12.64-37.04-22.58-53.73l6.52-5.07c4.44,7.51,8.32,15.51,11.73,23.54,50.93,119.92,16.92,258.8-83.08,341.13-47.59,39.19-107.91,62.52-169.69,65.91Z"/>
  <path d="M16.77,213.68c48.85-6.89,99.94,2.02,142.71,26.43l-11.06,57.47c-13.57-.43-25.94,8.07-27.43,21.96l-55.13-.07-.92-.65c-2.29-25.62-38.51-31.27-48.07-7.38-10.79,26.99,24.57,47.89,42.63,25.4,2.55-3.18,3.56-8.07,4.68-9.43,1.47-1.79,4.85-.02,7.04.04,16.41.5,32.91-.4,49.33-.08,3.74,15.23,18.05,24.2,33.38,19.24,17-5.5,22.05-28.34,9.85-41.19-1.63-1.71-8.17-5.02-8.22-6.56l11.34-54.6c48.58,29.18,85.48,77.57,99.93,132.56l-64.98,8.54c-5.18-18.77-30.41-23.49-42.82-8.54-10.56,12.73-6.43,32.39,8.97,38.52l-24.94,88.08c-13.09,1.33-24.13,8.68-25.96,22.43-58.38-43.48-99.81-109.81-112.62-181.81-12.07-67.85.66-136.98,33.47-197.01l4.63,2.84c-12.04,19.74-19.73,41.57-25.8,63.81Z"/>
  <path d="M269.16,383.88c15.41,64.45,1.11,133.41-37.62,186.66,20.19,4.36,40.64,7.39,61.4,6.25l1.31,7.88c-23.66-.61-46.6-2.88-69.62-8.38-23.75-5.67-46.45-14.73-68.33-25.36-.64-.88,5.56-6.29,6.61-7.88,8.59-13.03,2.95-31.75-12.01-36.91l24.59-87.76c1.06-1.27,6.97-.64,9.67-1.31,10.75-2.65,17.44-13.43,18.69-23.81l65.32-9.38Z"/>
  <polygon points="367.54 731.33 392.23 770.55 392.23 731.33 421.23 731.33 421.23 819.17 391.45 819.17 367.15 779.17 367.15 819.17 338.15 819.17 338.15 731.33 367.54 731.33"/>
  <path d="M297.39,709.37v-87.84h53.69c2.14,0,8.44,1.74,10.78,2.54,10.05,3.43,13.92,8.38,14.72,18.99.97,12.74,1.15,36.09,0,48.69-.78,8.55-5.24,13.35-13.36,15.65-2.16.61-7.9,1.96-9.8,1.96h-56.04ZM331.87,693.68c4.37.01,9.07-.2,10-5.29,2.37-13.03-1.41-31.69.23-45.34.22-6.12-5.26-6.77-10.23-6.63v57.25Z"/>
  <path d="M142.97,621.92c.69-1.12,1.56-1.08,2.7-1.22,12.54-1.47,43.88-.65,56.26,1.82,15.23,3.04,19.28,15.4,16.88,29.8-1.34,8.03-6.76,8.84-13.52,10.01-.99.17-2.64.38-1.19,1.54,5.67-.09,14.9,5.16,14.9,11.38v33.33h-31.35v-34.12c0-4.37-6.74-5.74-10.19-5.1v39.22h-34.49v-86.67ZM177.46,655.25c9.24.75,10.69-3.03,10.22-11.41-.45-7.89-2.79-7.71-10.22-7.41v18.82Z"/>
  <path d="M128.7,731.57c15.56-1.39,45.33-1.93,49.35,17.6,2.1,10.22,1.71,33.61.96,44.51-1.26,18.19-11.2,24.06-28.61,25.49-18.2,1.49-47.93,1.39-49.79-22.31-.92-11.8-1.01-33.03,0-44.76,1.3-15.01,15.01-19.36,28.09-20.52ZM142.77,804.85c.8-.75,1.65-3.66,1.79-4.87,1.21-10.95,1.24-40.09,0-51.01-.46-4.07-1.91-4.78-5.92-4.34-3.64.4-3.96,3.52-4.27,6.72-1.1,11.19-1.25,37.57-.01,48.62.53,4.75,4.43,8.63,8.42,4.89Z"/>
  <path d="M217.43,731.33c4.28,15.03,6.39,30.71,7.45,46.28l6.81-44.96,1.03-1.32h31.75l-14.9,87.84-46.54.05-17.73-87.89h32.14Z"/>
  <path d="M536.46,755.64c-.5-3.93,2-10.59-3.52-11.05-8.2-.68-8.01,10.34-3.95,14.2,6.23,5.93,21.64,8.89,29.79,15.68,11.07,9.21,13.87,33.75-.33,41.2-10.94,5.74-42.37,5.74-52.51-1.66-2.67-1.95-7.1-8.54-7.1-11.71v-12.16h28.22v11.37c0,5.4,9.89,6.5,10.92-.05.66-4.18.48-9.75-2.81-12.78-6.25-5.76-21.49-9.56-29.29-16.18-10.92-9.27-12.34-31.69,1.82-38.2,8.8-4.04,34.87-4.16,44.16-1.54,10.76,3.03,14.1,10.89,13.47,21.57l-1.05,1.3h-27.83Z"/>
  <polygon points="488.64 731.33 488.64 748.59 466.7 748.59 466.7 765.06 486.68 765.06 487.86 766.23 487.86 782.31 466.7 782.31 466.7 801.13 489.82 801.13 490.99 802.31 490.99 819.17 432.21 819.17 432.21 731.33 488.64 731.33"/>
  <polygon points="264.46 638.78 264.46 655.25 285.63 655.25 285.63 671.72 264.46 671.72 264.46 691.33 288.76 691.33 288.76 708.59 229.98 708.59 229.98 620.74 286.02 620.74 287.2 621.92 287.2 637.61 286.02 638.78 264.46 638.78"/>
  <polygon points="327.96 731.33 327.96 748.59 305.22 748.59 305.22 765.06 326 765.06 327.17 766.23 327.17 782.31 305.22 782.31 305.22 801.13 329.13 801.13 330.31 802.31 330.31 819.17 271.52 819.17 271.52 731.33 327.96 731.33"/>
  <path d="M92.02,731.33v71.76c0,2.38-4.29,7.8-6.26,9.42-10.89,8.93-42.74,8.99-55.41,3.66-11.02-4.64-13.42-15.76-12.79-26.81h29c.34,3.45-1.17,11.86,2.02,14.05,3.95,2.72,9.74-.69,9.74-5.03v-67.06h33.71Z"/>
  <path d="M418.1,659.96v48.63l-10.55.06-.82-2.4c-4.64,4.33-12.68,4-14.16-3.1-1.06-5.1-.85-19.99-.38-25.56.88-10.37,6.46-11,14.92-6.64v-10.98h10.97ZM403.99,675.64v25.49c0,.48,1.62,1.51,2.35,1.17,1.04-1.1,1.3-24.53.07-26.2l-2.42-.46Z"/>
  <path d="M446.32,689.76h-13.33v12.55l2.4-.35,1.47-8.72,9.46-.35c1.57,12.41-5.9,19.03-17.89,15.16-6.27-2.02-6.83-8.09-7.23-13.95-.84-12.34-1.01-28.23,15.92-25.33,4.18.72,9.2,5.21,9.2,9.61v11.37ZM435.35,675.64h-2.38v7.07h2.38v-7.07Z"/>
  <path d="M408.69,859.96h-6.27v-12.94c0-.16-1.27-2.21-1.55-2.39-1.53-1.66-4.72,2.14-4.72,3.17v12.16h-6.27v-13.73c0-2.28-5.49-2.28-5.49,0v13.73h-7.05v-20.39c2.44-1.13,5.58,1.19,6.68,1.26,1.22.08,3.53-2.13,6.07-1.88s4.63,3.09,5.56,2.92c1.31-.24,2.63-3.47,6.96-2.94,2.47.3,6.09,3.3,6.09,5.74v15.29Z"/>
  <path d="M264.46,830.15v29.8c-2.3,1.17-5.86-1.26-6.67-1.28-.57-.01-3.16,2.04-5.52,2.1-14.43.42-10.65-28.57,5.12-20.43l.74-9.85,6.32-.34ZM251.33,845.25c-1.92,3.73-1.97,11.62,3.96,9.87,4.06-1.2,3.16-14.83-3.96-9.87Z"/>
  <path d="M412.61,830.15l6.32.34.74,10.64c16.89-10.68,19.47,21.62,3.59,19.6-2.17-.28-3.44-2.37-4.77-2.37-.45,0-.28,1.43-.91,1.59-1.42.36-3.42-.2-4.97,0v-29.8ZM421.79,844.41c-3.11.91-2.97,9.27-.56,10.46,7.67,3.81,8.49-12.8.56-10.46Z"/>
  <path d="M136.7,832.52l-1.58,5.49-8.87-.82-1.15,2.14c.15,4.29,13.14,3.43,12.43,13.18-.66,9.14-13.08,9.43-19.65,6.66l2.02-5.44c3.19,2.45,14.79,2.25,9.75-3.58-2.43-2.81-11.86-2.37-11.33-10.69.58-9.11,11.85-9.01,18.38-6.93Z"/>
  <path d="M317.76,838c-19.42-6.33-19.8,22.25,0,16.47l.47,4.73c-29.62,10.12-29.19-35.52,0-26.73l-.47,5.53Z"/>
  <path d="M341.11,849.83c0,6.09-4.93,11.02-11.01,11.02s-11.01-4.93-11.01-11.02,4.93-11.02,11.01-11.02,11.01,4.93,11.01,11.02ZM332.45,855.04c3.31-3.06,1.74-12.54-3.97-10.66-4.89,2.98-1.23,15.47,3.97,10.66Z"/>
  <path d="M178.8,849.84c0,6.07-4.92,11-10.99,11s-10.99-4.92-10.99-11,4.92-11,10.99-11,10.99,4.92,10.99,11ZM170.22,855.06c2.94-2.98,2.05-12.42-3.96-10.65-5.16,1.52-1.24,15.93,3.96,10.65Z"/>
  <path d="M374.96,849.94c0,6.08-4.93,11.01-11.01,11.01s-11.01-4.93-11.01-11.01,4.93-11.01,11.01-11.01,11.01,4.93,11.01,11.01ZM362.18,844.4c-3.48,1.2-2.84,12.25,2.04,11.53,5.51-.81,5.5-14.13-2.04-11.53Z"/>
  <path d="M187.65,839.57v11.37c0,3.95,2.78,5.27,6.27,3.53v-14.9h7.05v20.39c-1.55-.2-3.55.36-4.97,0-.62-.16-.46-1.6-.91-1.6-1.86.02-3.88,3.22-8.44,2.23-2.04-.44-5.27-3.81-5.27-5.73v-15.29h6.27Z"/>
  <path d="M465.13,859.96c-2.38-.4-5.89,1.34-6.66-1.57-4.41,4.61-12.23,2.65-12.23-4.32,0-6.54,6.45-7.78,11.83-7.46-1.08-4.97-6.08-2.52-9.39-1.56l-.77-4.68c4.53-1.17,11.95-3.11,15.26,1.55.43.61,1.97,4.63,1.97,5.09v12.94ZM458.07,850.55l-4.5.98c-2.31,2.2.76,6.03,3.39,3.8l1.1-4.77Z"/>
  <path d="M273.87,852.11c.07,6.36,13.96-.12,11.69,6.58-.79,2.34-7.48,2.2-9.54,1.86-12.73-2.14-10.78-21.4,1.41-21.8,9.72-.32,11.43,13.37,8.6,13.37h-12.15ZM279.93,844.49c-2.15-2.02-6.78-.46-6.06,2.92h7.05c.36-.34-.52-2.48-.99-2.92Z"/>
  <path d="M212.73,834.08v5.49s3.93,0,3.93,0v4.71s-3.93,0-3.93,0l.11,9.7,3.86,1.72-.38,4.32c-11.39,3.78-11.12-7.11-10.58-15.31l-2.46-.86v-3.85s2.32-.47,2.32-.47l.18-3.79,6.95-1.66Z"/>
  <path d="M232.32,845.06c-.91-1-8.09-2.23-7.04.38,1.3,3.22,9.41,1.4,8.68,9.44-.57,6.28-11.03,7.38-15.43,4.32l.47-4.73c.35-.37,7.95,3.5,8.61.38.57-2.7-6.66-3.13-8.04-6.05-3.79-8.06,7.97-12.83,13.44-8l-.7,4.26Z"/>
  <path d="M156.3,839.57l-.8,5.49c-11.91-4.48-13.29,12.79-.08,10.28l.87,4.61c-22.74,6.35-22.45-25.78,0-20.38Z"/>
  <path d="M350.69,859.96h-7.05v-29.8c2.36.22,5.39-.87,7.05,1.18v28.63Z"/>
  <path d="M157.08,715.64l-12.15,12.55h-12.15c-.34-1.37.57-1.57,1.17-2.36.91-1.19,9.47-10.19,10.19-10.19h12.93Z"/>
  <rect x="436.91" y="839.57" width="7.05" height="20.39"/>
  <rect x="92.8" y="845.84" width="18.03" height="3.92"/>
  <rect x="474.53" y="845.84" width="18.03" height="3.92"/>
  <circle cx="440.25" cy="833.57" r="3.71"/>
</svg>